<svg width="1436" height="868" viewBox="0 0 1436 868" fill="none" xmlns="http://www.w3.org/2000/svg">
<mask id="mask0_40_39" style="mask-type:alpha" maskUnits="userSpaceOnUse" x="0" y="0" width="1436" height="868">
<rect width="1436" height="868" fill="#D9D9D9"/>
<rect width="1436" height="868" fill="black" fill-opacity="0.1"/>
</mask>
<g mask="url(#mask0_40_39)">
<path d="M0.312347 -28.9999C317.614 16.4221 757.62 532.684 717.014 712.205C690.387 829.889 378.433 827.246 293.206 848.471C176.98 877.375 397.05 769.168 441.872 644.072C495.125 495.418 414.291 104.623 670.728 173.334C894.525 233.333 942.986 427.656 1103.41 423.155C1248.5 419.026 1361.54 255.92 1434.03 119.654" stroke="#4F4F4F" stroke-opacity="0.1" stroke-miterlimit="10"/>
<path d="M0.290222 -17.0869C304.278 33.5587 727.576 533.531 693.738 705.536C671.549 818.224 376.104 814.466 297.244 833.543C187.92 859.95 398.603 755.954 443.048 635.937C496.301 492.032 422.811 118.044 670.373 184.298C891.219 243.243 935.797 442.088 1097.66 442.377C1243.02 442.13 1360.51 282.554 1436.2 149.199" stroke="#4F4F4F" stroke-opacity="0.1" stroke-miterlimit="10"/>
<path d="M0.263977 -5.23642C290.939 50.6326 697.528 534.274 670.48 698.805C652.729 806.496 373.77 801.624 301.279 818.554C198.832 842.379 400.152 742.678 444.22 627.719C497.473 488.563 431.35 131.422 670.014 195.198C887.909 253.112 928.603 456.994 1091.94 461.537C1237.54 465.666 1359.49 309.146 1438.39 178.681" stroke="#4F4F4F" stroke-opacity="0.1" stroke-miterlimit="10"/>
<path d="M0.263977 6.69754C277.625 67.8108 667.507 535.038 647.226 692.157C633.913 794.79 371.44 788.864 305.317 803.647C209.705 824.748 401.728 729.403 445.396 619.523C498.804 485.094 439.893 144.801 669.681 206.079C884.603 262.981 921.37 471.695 1086.17 480.676C1232.01 488.708 1358.45 335.759 1440.57 208.144" stroke="#4F4F4F" stroke-opacity="0.1" stroke-miterlimit="10"/>
<path d="M0.243225 18.5898C264.424 84.9266 637.464 535.699 623.973 685.467C615.098 783.021 369.134 776.043 309.379 788.575C220.623 807.157 403.327 716.148 446.573 611.326C500.07 481.647 448.437 158.201 669.327 216.981C881.298 272.85 914.16 486.168 1080.47 499.836C1226.51 511.831 1357.47 362.352 1442.77 237.627" stroke="#4F4F4F" stroke-opacity="0.1" stroke-miterlimit="10"/>
<path d="M0.22113 30.4822C251.133 102.063 607.421 536.318 600.697 678.778C596.26 771.191 366.826 763.222 313.418 773.607C231.585 789.505 404.969 702.872 447.749 603.13C501.358 478.178 456.98 171.621 668.995 227.903C877.97 282.76 906.926 500.745 1074.72 519.017C1221.01 534.956 1356.52 388.944 1444.96 267.131" stroke="#4F4F4F" stroke-opacity="0.1" stroke-miterlimit="10"/>
<path d="M0.22113 42.3954C237.842 119.2 577.355 536.628 577.443 672.11C577.443 759.299 364.43 750.359 317.456 758.618C242.502 771.77 406.611 689.618 448.925 594.954C502.667 474.71 465.5 184.979 668.595 238.825C874.619 292.629 899.626 515.28 1068.95 538.197C1215.4 558.018 1355.39 415.62 1447.12 296.635" stroke="#4F4F4F" stroke-opacity="0.1" stroke-miterlimit="10"/>
<path d="M0.199005 54.2873C224.529 136.315 547.244 536.937 554.189 665.42C558.627 747.345 362.255 737.476 321.517 743.649C253.419 753.972 408.32 676.362 450.212 586.737C504.131 471.117 474.043 198.75 668.396 249.705C871.335 302.911 892.504 529.753 1063.36 557.336C1210.09 581.038 1354.52 442.212 1449.44 326.097" stroke="#4F4F4F" stroke-opacity="0.1" stroke-miterlimit="10"/>
<path d="M0.178284 66.1803C211.239 153.452 517.047 537.124 530.915 658.731C539.657 735.308 360.06 724.572 325.556 728.66C264.382 735.928 410.03 663.108 451.301 578.582C505.375 467.752 482.365 212.212 667.953 260.628C867.92 312.842 885.205 544.206 1057.52 576.517C1204.46 604.059 1353.41 468.846 1451.53 355.601" stroke="#4F4F4F" stroke-opacity="0.1" stroke-miterlimit="10"/>
<path d="M0.178284 78.0719C197.948 170.568 486.759 537.144 507.661 652.041C520.619 723.209 357.886 711.606 329.595 713.691C275.365 717.676 411.694 649.852 452.477 570.384C506.795 464.283 490.997 225.59 667.709 271.57C864.702 322.793 878.082 558.657 1051.89 595.718C1199.04 627.079 1352.5 495.479 1453.84 385.125" stroke="#4F4F4F" stroke-opacity="0.1" stroke-miterlimit="10"/>
<path d="M0.156158 89.9643C184.657 187.704 456.293 537.041 484.407 645.351C501.448 711.048 355.889 698.598 333.522 698.722C286.393 698.97 413.402 636.618 453.542 562.188C508.127 460.794 499.407 239.031 667.155 282.471C861.152 332.724 870.627 573.048 1045.94 614.877C1193.32 649.976 1351.26 522.093 1455.79 414.608" stroke="#4F4F4F" stroke-opacity="0.1" stroke-miterlimit="10"/>
<path d="M0.134064 101.877C171.366 204.82 425.629 536.814 461.153 638.683C482.122 698.826 353.404 688.916 337.694 683.733C298.02 687.863 415.355 623.384 454.829 554.012C509.724 457.325 508.083 252.431 666.911 293.393C857.957 342.635 863.527 587.418 1040.31 634.058C1187.93 672.977 1350.35 548.727 1458.1 444.112" stroke="#4F4F4F" stroke-opacity="0.1" stroke-miterlimit="10"/>
<path d="M0.134064 113.769C158.052 221.956 394.653 536.503 437.877 631.993C462.595 686.582 351.14 676.341 341.732 668.764C309.026 670.664 417.33 610.17 456.005 545.815C511.278 453.856 516.603 265.83 666.556 304.252C854.629 352.503 856.315 601.725 1034.58 653.176C1182.45 695.852 1349.33 575.298 1460.3 473.553" stroke="#4F4F4F" stroke-opacity="0.1" stroke-miterlimit="10"/>
<path d="M0.113312 125.662C144.763 239.073 363.346 536.215 414.624 625.304C442.849 674.36 348.856 663.768 345.839 653.775C320.077 653.424 419.35 596.957 457.249 537.64C512.965 450.388 525.214 279.209 666.291 315.216C851.391 362.455 849.194 616.096 1028.92 672.398C1177.03 718.791 1348.44 601.974 1462.54 503.098" stroke="#4F4F4F" stroke-opacity="0.1" stroke-miterlimit="10"/>
<path d="M0.0870667 137.554C131.468 256.208 331.656 536.029 391.366 618.614C422.874 662.199 346.589 651.194 349.806 638.806C331.012 636.184 421.299 583.784 458.355 529.38C514.603 446.795 533.686 292.525 665.865 326.055C848.014 372.282 841.934 630.321 1023.11 691.496C1171.48 741.625 1347.31 628.524 1464.67 532.519" stroke="#4F4F4F" stroke-opacity="0.1" stroke-miterlimit="10"/>
<path d="M0.0870667 149.447C118.176 273.325 299.637 536.133 368.09 611.925C402.683 650.183 344.304 638.621 353.867 623.838C342.018 618.966 423.385 570.633 459.531 521.267C516.401 443.596 542.229 305.946 665.51 337.04C844.708 382.214 834.767 644.67 1017.38 710.739C1166.05 764.543 1346.29 655.2 1466.86 562.085" stroke="#4F4F4F" stroke-opacity="0.1" stroke-miterlimit="10"/>
<path d="M0.0649719 161.339C104.885 290.461 267.131 536.648 344.836 605.236C382.358 638.373 342.04 626.047 357.905 608.849C353.024 601.726 425.537 557.543 460.707 513.07C518.287 440.271 550.771 319.304 665.177 347.899C841.402 392.021 827.622 658.834 1011.64 729.857C1160.59 787.337 1345.27 681.772 1469.04 591.526" stroke="#4F4F4F" stroke-opacity="0.1" stroke-miterlimit="10"/>
<path d="M0.0428467 173.251C91.5721 307.576 234.513 537.722 321.582 598.566C361.988 626.79 339.755 613.473 361.944 593.88C364.03 584.506 427.778 544.494 461.794 504.873C520.24 437.05 559.248 332.662 664.734 358.862C838.007 401.91 820.411 673.141 1005.82 749.078C1155.06 810.212 1344.18 708.446 1471.15 621.071" stroke="#4F4F4F" stroke-opacity="0.1" stroke-miterlimit="10"/>
<path d="M0.0428467 185.144C78.2809 324.714 201.851 539.353 298.328 591.878C341.641 615.456 340.687 604.059 365.982 578.912C376.522 568.423 430.086 531.425 463.081 496.698C522.503 433.974 567.901 345.979 664.49 369.785C834.812 411.738 813.377 687.346 1000.16 768.259C1149.74 833.048 1343.25 735.06 1473.43 650.575" stroke="#4F4F4F" stroke-opacity="0.1" stroke-miterlimit="10"/>
<path d="M0.0221252 197.098C64.9912 341.891 169.368 541.603 275.165 585.249C321.562 604.409 336.761 590.06 370.155 563.983C386.908 550.894 432.573 518.706 464.369 488.562C524.967 431.145 576.556 359.378 664.247 380.747C831.64 421.565 806.389 701.612 994.551 787.48C1144.46 855.902 1342.34 761.755 1475.72 680.119" stroke="#4F4F4F" stroke-opacity="0.1" stroke-miterlimit="10"/>
<path d="M0 208.929C51.7002 358.967 137.194 544.144 251.8 578.499C301.436 593.385 333.477 576.435 374.083 548.954C397.337 533.201 434.88 505.886 465.434 480.326C527.386 428.483 585.055 372.511 663.781 391.546C828.334 430.981 799.333 715.447 988.693 806.538C1139.05 878.408 1341.21 788.246 1477.8 709.5" stroke="#4F4F4F" stroke-opacity="0.1" stroke-miterlimit="10"/>
<path d="M0 220.821C38.409 376.082 105.419 547.034 228.546 571.809C387.574 603.914 510.19 366.089 663.448 402.509C825.028 440.932 792.144 729.899 982.969 825.76C1133.56 901.449 1340.21 814.941 1480 739.045" stroke="#4F4F4F" stroke-opacity="0.1" stroke-miterlimit="10"/>
</g>
</svg>
